<?xml version="1.0" encoding="iso-8859-1"?>
<!-- Uploaded to: SVG Repo, www.svgrepo.com, Generator: SVG Repo Mixer Tools -->
<svg height="800px" width="800px" version="1.1" id="Layer_1" xmlns="http://www.w3.org/2000/svg" xmlns:xlink="http://www.w3.org/1999/xlink" 
	 viewBox="0 0 512 512" xml:space="preserve">
<circle style="fill:#88C5CC;" cx="256" cy="256" r="256"/>
<path style="fill:#80B9BF;" d="M481.824,376.608c-0.292-0.82-0.648-1.616-0.984-2.424c-0.292-0.836-0.652-1.64-0.992-2.456
	c-0.292-0.836-0.652-1.64-0.992-2.452c-0.292-0.844-0.656-1.648-0.996-2.468c-0.288-0.828-0.648-1.628-0.988-2.44
	c-0.292-0.836-0.652-1.636-0.988-2.456c-0.296-0.836-0.656-1.64-0.992-2.452c-0.296-0.844-0.656-1.648-1-2.468
	c-0.288-0.828-0.648-1.628-0.984-2.44c-0.296-0.836-0.656-1.636-0.992-2.456c-0.296-0.844-0.664-1.664-1.008-2.492
	c-0.288-0.82-0.648-1.612-0.984-2.416c-0.288-0.84-0.656-1.648-0.992-2.468c-0.292-0.824-0.656-1.628-0.992-2.44
	c-0.288-0.836-0.648-1.636-0.988-2.452c-0.292-0.836-0.652-1.64-0.992-2.456c-0.292-0.84-0.656-1.648-0.996-2.464
	c-0.292-0.828-0.652-1.632-0.988-2.444c-0.292-0.836-0.652-1.636-0.992-2.452c-0.292-0.836-0.652-1.64-0.992-2.456
	c-0.292-0.84-0.656-1.644-0.996-2.464c-0.288-0.828-0.652-1.632-0.988-2.44c-0.292-0.836-0.652-1.64-0.992-2.456
	c-0.292-0.836-0.652-1.64-0.992-2.452c-0.292-0.836-0.652-1.64-0.988-2.46c-0.296-0.836-0.656-1.648-1-2.464
	c-0.288-0.828-0.648-1.628-0.984-2.44c-0.296-0.836-0.656-1.64-0.992-2.452c-0.296-0.836-0.656-1.64-0.992-2.46
	c-0.292-0.836-0.656-1.644-1-2.464c-0.288-0.828-0.648-1.628-0.984-2.44c-0.292-0.836-0.656-1.64-0.992-2.452
	c-0.292-0.836-0.652-1.64-0.992-2.46c-0.292-0.836-0.656-1.644-0.996-2.464c-0.292-0.828-0.652-1.628-0.988-2.44
	c-0.296-0.848-0.664-1.668-1.008-2.492c-0.288-0.82-0.648-1.616-0.98-2.416c-0.292-0.836-0.652-1.64-0.992-2.456
	c-0.292-0.84-0.656-1.648-0.996-2.468c-0.292-0.828-0.652-1.624-0.988-2.436c-0.292-0.836-0.652-1.64-0.992-2.456
	c-0.292-0.836-0.652-1.64-0.992-2.456c-0.292-0.84-0.656-1.648-0.996-2.468c-0.288-0.828-0.648-1.624-0.984-2.436
	c-0.296-0.836-0.656-1.64-0.992-2.456c-0.296-0.836-0.656-1.64-0.992-2.456c-0.296-0.84-0.656-1.648-1-2.468
	c-0.288-0.828-0.648-1.624-0.984-2.436c-0.292-0.836-0.656-1.64-0.992-2.456c-0.292-0.836-0.656-1.64-0.992-2.456
	c-0.292-0.836-0.656-1.64-0.992-2.452c-0.292-0.844-0.656-1.648-1-2.468c-0.288-0.828-0.648-1.628-0.984-2.44
	c-0.292-0.836-0.652-1.64-0.992-2.456c-0.292-0.836-0.652-1.64-0.992-2.452c-0.292-0.844-0.656-1.648-0.996-2.468
	c-0.292-0.828-0.652-1.628-0.988-2.44c-0.292-0.836-0.652-1.636-0.992-2.456c-0.288-0.836-0.652-1.64-0.992-2.452
	c-0.288-0.844-0.656-1.648-0.996-2.468c-0.292-0.84-0.66-1.656-1.004-2.48c-0.288-0.82-0.648-1.612-0.98-2.416
	c-0.292-0.836-0.652-1.64-0.988-2.452c-0.296-0.836-0.656-1.64-0.992-2.456c-0.296-0.84-0.656-1.648-1-2.468
	c-0.288-0.824-0.648-1.628-0.984-2.44c-0.296-0.836-0.656-1.636-0.992-2.452c-0.292-0.836-0.656-1.64-0.992-2.456
	c-0.292-0.84-0.656-1.648-1-2.464c-0.288-0.828-0.648-1.632-0.984-2.444c-0.292-0.836-0.652-1.636-0.992-2.452
	c-0.292-0.836-0.652-1.64-0.992-2.456c-0.292-0.84-0.656-1.644-0.996-2.464c-0.292-0.828-0.652-1.632-0.988-2.44
	c-0.292-0.836-0.652-1.64-0.992-2.456c-0.292-0.836-0.652-1.64-0.992-2.452c-0.288-0.836-0.652-1.64-0.992-2.46
	c-0.288-0.836-0.656-1.648-0.996-2.464c-0.292-0.828-0.652-1.628-0.988-2.44c-0.288-0.836-0.648-1.64-0.992-2.452
	c-0.288-0.836-0.648-1.64-0.992-2.46c-0.288-0.836-0.656-1.644-0.992-2.464c-0.296-0.828-0.656-1.628-0.992-2.44
	c-0.288-0.836-0.648-1.64-0.992-2.452c-0.288-0.836-0.648-1.64-0.992-2.46c-0.492-1.416-1.064-2.804-1.688-4.172
	c-0.092-0.248-0.2-0.488-0.296-0.74c-0.292-0.836-0.656-1.636-0.992-2.456c-0.292-0.836-0.652-1.64-0.992-2.452
	c-0.292-0.84-0.656-1.648-0.996-2.468c-0.292-0.828-0.652-1.628-0.988-2.436c-0.292-0.836-0.652-1.64-0.992-2.46
	c-0.292-0.836-0.652-1.636-0.992-2.452c-0.292-0.836-0.652-1.64-0.992-2.456c-0.292-0.84-0.656-1.648-0.996-2.464
	c-0.292-0.828-0.652-1.632-0.988-2.444c-0.288-0.836-0.652-1.636-0.992-2.452c-6.888-19.6-26.584-34.4-47.58-34.4h-12h-116h-36
	c-1.344,0-2.68,0.084-4.008,0.204c-0.464,0.044-0.928,0.1-1.4,0.156c-0.852,0.108-1.704,0.236-2.548,0.384
	c-0.548,0.092-1.092,0.196-1.636,0.312c-0.8,0.172-1.596,0.376-2.392,0.584c-0.504,0.132-1.012,0.252-1.504,0.404
	c-0.016,0.004-0.024,0.004-0.032,0.008c0,0,0,0,0,0.004c-18.328,5.552-33.412,21.808-36.188,40.96L96.06,330.988
	c-1.316,4.172-2.032,8.6-2.032,13.204v20c0,6.38,1.396,12.42,3.844,17.904c0.312,0.828,0.632,1.652,0.992,2.456
	c0.312,0.828,0.632,1.656,0.992,2.468c0.312,0.82,0.632,1.64,0.992,2.436c0.312,0.828,0.632,1.652,0.992,2.456
	c0.312,0.828,0.632,1.652,0.992,2.456c0.312,0.828,0.628,1.648,0.992,2.452c0.308,0.836,0.632,1.664,0.992,2.468
	c0.312,0.824,0.628,1.64,0.992,2.44c0.308,0.828,0.628,1.652,0.988,2.456c0.312,0.828,0.632,1.648,0.992,2.452
	c0.316,0.844,0.644,1.688,1.016,2.508c0.304,0.808,0.62,1.612,0.972,2.408c0.312,0.828,0.632,1.648,0.992,2.452
	c0.312,0.828,0.632,1.656,0.992,2.456c0.312,0.832,0.636,1.66,0.996,2.468c0.312,0.824,0.628,1.64,0.988,2.44
	c0.312,0.828,0.632,1.648,0.992,2.452c0.312,0.828,0.632,1.656,0.992,2.456c0.312,0.832,0.632,1.66,0.992,2.468
	c0.312,0.824,0.632,1.64,0.992,2.44c0.312,0.828,0.632,1.648,0.992,2.452c0.312,0.828,0.632,1.652,0.992,2.456
	c0.312,0.828,0.632,1.652,0.992,2.456c0.312,0.832,0.632,1.66,0.992,2.468c0.312,0.82,0.628,1.64,0.992,2.436
	c0.308,0.828,0.628,1.652,0.992,2.456c0.308,0.828,0.628,1.652,0.988,2.456c0.312,0.828,0.636,1.656,0.996,2.468
	c0.312,0.82,0.628,1.64,0.988,2.436c0.312,0.828,0.632,1.652,0.992,2.456c0.312,0.828,0.632,1.652,0.992,2.456
	c0.312,0.828,0.636,1.656,0.996,2.468c0.312,0.82,0.628,1.64,0.988,2.436c0.312,0.828,0.628,1.652,0.992,2.456
	c0.312,0.828,0.628,1.652,0.992,2.456c0.316,0.836,0.636,1.672,1.008,2.492c0.308,0.82,0.628,1.632,0.984,2.428
	c0.308,0.824,0.628,1.64,0.988,2.44c0.312,0.828,0.632,1.652,0.992,2.456c0.312,0.828,0.632,1.648,0.992,2.452
	c0.312,0.832,0.632,1.66,0.992,2.468c0.132,0.352,0.288,0.692,0.42,1.04C174.044,501.736,213.812,512,256,512
	C353.764,512,438.704,457.176,481.824,376.608z"/>
<path style="fill:#E7915C;" d="M414,360H98c-1.16,0-2.264-0.504-3.024-1.384C94.22,357.744,94,352,94,344l30.296-196.988
	C127.736,123.296,150.036,104,174,104h164c23.964,0,46.256,19.296,49.704,43.012L418,344c0,4-0.22,13.744-0.976,14.616
	C416.264,359.496,415.16,360,414,360z"/>
<g>
	<path style="fill:#CC8051;" d="M387.704,147.012C384.256,123.296,361.964,104,338,104h-12c23.964,0,46.256,19.296,49.704,43.012
		L406,344c0,4-0.22,13.744-0.976,14.616c-0.76,0.88-1.864,1.384-3.024,1.384h12c1.16,0,2.264-0.504,3.024-1.384
		C417.78,357.744,418,348,418,344L387.704,147.012z"/>
	<path style="fill:#CC8051;" d="M374,408H138c-24.256,0-44-19.744-44-44v-20c0-24.256,19.744-44,44-44h236c24.256,0,44,19.744,44,44
		v20C418,388.256,398.256,408,374,408z"/>
</g>
<path style="fill:#E7915C;" d="M138,400c-19.852,0-36-16.148-36-36v-20c0-19.852,16.148-36,36-36h236c19.852,0,36,16.148,36,36v20
	c0,19.852-16.148,36-36,36H138z"/>
<circle style="fill:#F5F5F5;" cx="347.32" cy="354" r="20"/>
<circle style="fill:#E7915C;" cx="347.32" cy="354" r="12"/>
<path style="fill:#F5F5F5;" d="M291.78,253.256H224.5c-15.972,0-28.964-12.992-28.964-28.96c0-15.024,11.488-27.408,26.14-28.828
	c5.248-18.516,22.252-31.644,41.584-31.644c23.836,0,43.228,19.576,43.228,43.636c0,0.508-0.008,1.012-0.028,1.516
	c6.232,4.6,10.012,11.944,10.012,19.72C316.464,242.244,305.392,253.256,291.78,253.256z M224.4,203.332
	c-11.452,0-20.864,9.412-20.864,20.964s9.412,20.96,20.964,20.96h67.28c9.2,0,16.684-7.424,16.684-16.568
	c0-5.884-3.06-11.2-8.184-14.224c-1.336-0.784-2.092-2.272-1.952-3.816c0.092-1.06,0.152-2.116,0.152-3.196
	c0-19.648-15.8-35.636-35.232-35.636c-16.596,0-31.104,11.916-34.492,28.332c-0.384,1.86-2.016,3.192-3.916,3.192
	C224.752,203.348,224.488,203.336,224.4,203.332z"/>
</svg>